# xmcd
#
# Track frame offsets: 
#        150
#        11967
#        25850
#        39442
#        54357
#        65420
#        79582
#        93262
#        106647
#        120927
#        131847
#        143610
#        156417
#        169500
#
# Disc length: 2430 seconds
#
# Revision: 9
# Processed by: cddbd v1.5.2PL0 Copyright (c) Steve Scherf et al.
# Submitted via: ExactAudioCopyFreeDBPlugin 1.0
#
DISCID=a6097c0e
DTITLE=Etta James - At Last! [RM 1999]
DYEAR=1961
DGENRE=Blues
TTITLE0=Anything to Say You're Mine
TTITLE1=My Dearest Darling
TTITLE2=Trust in Me
TTITLE3=A Sunday Kind of Love
TTITLE4=Tough Mary
TTITLE5=I Just Want to Make Love to You
TTITLE6=At Last
TTITLE7=All I Could Do Is Cry
TTITLE8=Stormy Weather
TTITLE9=Girl of My Dreams (Boy of My Dreams)
TTITLE10=Etta James duet w- Harvey Fuqua - My Heart Cries
TTITLE11=Etta James duet w- Harvey Fuqua - Spoonful
TTITLE12=Etta James duet w- Harvey Fuqua - It's a Crying Shame
TTITLE13=Etta James duet w- Harvey Fuqua - If I Can't Have You
EXTD=All tracks recorded Chicago US-IL, 1960-01/1960-10, featuring the
EXTD=Riley Hampton Orchestra, arranged and conducted by Riley Hampton
EXTD=\nEtta James [Jamesetta Hawkins] (b. 1938-01-25): vocals\nHarvey
EXTD=Fuqua: duet vocals (11-14]\nTracks 1-10 originally released as A
EXTD=rgo singles (ex track 9), then as "At Last!" (Argo LP 4003, 1960-
EXTD=11-15 - Chess LP 9266, 1961).\nTracks 11-14 originally released as
EXTD=Chess singles.\nCD: MCA/Chess CHD-12017 (1999-07-27), UPC 008811
EXTD=201722. YEAR: 1961
EXTT0=
EXTT1=
EXTT2=
EXTT3=
EXTT4=
EXTT5=
EXTT6=
EXTT7=
EXTT8=
EXTT9=
EXTT10=
EXTT11=
EXTT12=
EXTT13=
PLAYORDER=
